<svg width="1208" height="224" viewBox="0 0 1208 224" fill="none" xmlns="http://www.w3.org/2000/svg">
<path d="M635.318 61.5407C633.328 70.6726 631.342 79.7818 627.76 87.925C627.431 86.9331 627.085 85.8819 626.722 84.7789C617.234 55.944 596.101 -8.28037 557.472 27.7589C553.878 55.0218 563.091 83.0818 572.189 110.794C576.988 125.41 581.755 139.929 584.594 154.183C591.98 186.123 631.387 186.712 644.292 158.702C664.333 119.43 683.927 76.9885 687.872 33.1999C685.812 17.2268 667.509 9.57508 653.842 18.9598C642.193 30.0041 638.749 45.8061 635.318 61.5407Z" fill="#621CD6"/>
<path d="M739.213 180.679C745.205 181.332 750.932 181.956 755.857 182.97C776.224 185.222 801.027 165.723 784.81 147.12C779.594 139.303 767.694 138.861 756.435 138.442C744.282 137.99 732.875 137.565 731.421 127.928C730.158 122.112 734.808 123.313 739.475 124.517C741.754 125.105 744.037 125.695 745.637 125.469C782.863 126.121 776.818 86.8486 733.565 86.3952C730.868 84.3211 732.383 79.768 733.848 75.3671C734.708 72.7807 735.552 70.2464 735.512 68.2993C740.727 66.6551 748.138 67.9752 755.785 69.3373C771.07 72.0598 787.299 74.9505 788.828 54.679C791.593 26.1154 697.178 14.9598 694.543 45.6261C693.874 55.8478 692.92 66.0996 691.965 76.3655L691.965 76.3681L691.965 76.3709V76.3723C689.653 101.223 687.334 126.155 689.015 150.943C691.205 175.45 717.024 178.263 739.213 180.679Z" fill="#621CD6"/>
<path fill-rule="evenodd" clip-rule="evenodd" d="M445.37 130.32L445.368 130.349C445.079 134.619 444.79 138.888 444.519 143.155C437.973 182.375 492.917 172.662 516.815 166.075C542.604 157.913 557.634 130.392 555.95 104.658C554.593 58.4705 504.403 26.1616 459.865 32.2169C443.557 35.235 445.309 50.2234 446.89 63.7545C447.388 68.0106 447.868 72.1225 447.764 75.6724C447.833 93.9039 446.601 112.121 445.37 130.32ZM504.276 99.8631C504.537 101.914 504.787 103.879 505.088 105.673C505.307 118.708 497.531 126.089 485.474 130.16C481.721 123.065 481.9 111.328 482.079 99.6612C482.196 92.0192 482.313 84.4071 481.323 78.1486C481.146 73.2743 482.957 72.0052 488.043 72.4984C501.022 74.3038 502.818 88.4119 504.276 99.8631Z" fill="#621CD6"/>
<path fill-rule="evenodd" clip-rule="evenodd" d="M808.81 104.079C808.659 115.434 808.529 125.262 807.589 130.444L807.531 130.864C805.103 148.67 800.413 183.055 827.98 184.09C846.382 185.255 849.05 172.175 851.489 160.218C852.582 154.862 853.628 149.732 856.022 146.208C861.498 150.947 865.777 158.613 870.079 166.317C879.432 183.071 888.888 200.009 910.964 187.446C929.379 174.291 914.996 146.653 902.55 133.794L902.507 133.751C901.413 132.643 900.862 132.086 900.84 131.509C900.818 130.927 901.336 130.324 902.376 129.113L902.495 128.975C920.09 110.405 928.352 78.7667 909.497 58.145C888.349 34.5795 850.738 32.0128 821.496 39.1062C809.644 41.2188 809.169 76.9921 808.81 104.079ZM853.43 91.1657C852.607 79.3866 851.647 65.6504 859.851 68.2236C874.413 66.642 878.972 93.7714 870.337 101.974C866.245 105.745 857.078 111.789 853.429 104.988C854.21 102.327 853.837 96.9854 853.43 91.1657Z" fill="#621CD6"/>
<path fill-rule="evenodd" clip-rule="evenodd" d="M307.228 136.774C312.373 102.91 318.48 62.7231 341.611 44.8296C356.478 33.9995 380.366 31.5639 393.636 46.2431C415.931 80.9045 441.836 126.729 433.609 168.612C416.607 190.36 405.996 175.227 398.286 164.233C394.845 159.326 391.982 155.244 389.387 155.632C384.959 159.34 377.897 159.774 371.096 160.191C360.926 160.816 351.341 161.404 352.023 172.853C350.135 199.208 294.21 194.707 302.127 166.097C304.07 157.558 305.601 147.483 307.228 136.776L307.228 136.774ZM357.992 112.193C357.208 116.721 356.426 121.243 355.209 125.394C356.356 128.154 361.007 127.013 365.483 125.914C368.152 125.259 370.759 124.619 372.525 124.83C376.929 124.349 371.967 113.477 367.756 104.25C365.475 99.2546 363.415 94.7409 363.181 92.6204C360.4 98.2816 359.195 105.245 357.992 112.193Z" fill="#621CD6"/>
<path fill-rule="evenodd" clip-rule="evenodd" d="M1077.5 158.332C1077.89 155.52 1078.27 152.711 1078.64 149.911C1082.32 122.357 1085.89 95.6457 1106.95 75.6313C1132.59 54.4742 1174.18 60.9294 1195.99 84.5055C1232.9 128.228 1177.39 179.367 1128.87 163.043C1111.83 162.656 1130.19 194.199 1153.38 186.008C1181.5 175.789 1191.22 216.332 1163.42 221.732C1121.24 232.23 1069.6 205.458 1077.5 158.332ZM1150.23 99.4456C1137.75 98.202 1128.23 106.635 1128.58 118.828C1127.1 127.242 1143.74 128.177 1149.67 127.866C1172.42 126.477 1175.03 98.9475 1150.23 99.4456Z" fill="#621CD6"/>
<path d="M995.562 46.1584C998.867 46.3974 1002.57 46.5315 1006.49 46.6733C1032.1 47.6003 1066.65 48.8511 1056.36 81.83C1050.35 98.2716 1037.48 95.2722 1024.51 92.2476C1018.08 90.7485 1011.62 89.2432 1005.96 90.0957C979.806 95.9269 994.166 103.426 1013.07 113.3C1028.99 121.612 1048.13 131.607 1049.02 143.705C1086.53 244.655 897.613 203.328 946.506 153.449C957.181 143.53 967.398 149.229 977.919 155.097C984.553 158.798 991.307 162.565 998.373 162.528C1012.72 159.09 997.947 148.684 990.654 146.736C925.83 134.158 925.964 44.7615 995.562 46.1584Z" fill="#621CD6"/>
<path fill-rule="evenodd" clip-rule="evenodd" d="M292.895 129.981C295.266 227.039 160.584 230.047 156.588 133.079C147.652 12.965 299.485 6.40596 292.895 129.981ZM243.605 140.87C246.011 128.127 229.638 69.8981 211.703 100.399C191.26 140.932 245.139 189.283 243.605 140.87Z" fill="#621CD6"/>
<path d="M104.236 64.6076C162.619 66.8988 166.633 121.827 104.219 122.978C100.679 123.288 104.779 135.132 109.227 147.978C113.336 159.846 117.741 172.57 116.689 177.842C115.19 235.259 61.009 219.495 65.4404 150.062C66.2858 124.222 58.372 126.333 44.7317 129.973C39.3582 131.406 33.096 133.077 26.1305 133.37C1.59249 137.884 -9.78975 106.033 10.3613 92.7338C25.1448 72.9621 62.1057 69.112 89.9249 66.2141C95.0747 65.6776 99.9113 65.1738 104.236 64.6076Z" fill="#621CD6"/>
<mask id="mask0_208_7911" style="mask-type:alpha" maskUnits="userSpaceOnUse" x="0" y="0" width="1208" height="210">
<path d="M635.318 46.6627C633.327 55.7946 631.341 64.9038 627.76 73.0471L627.654 72.7281C618.635 45.552 594.506 -27.1537 557.471 12.8809C547.997 23.1228 559.044 56.4796 570.104 89.8768C575.929 107.465 581.757 125.065 584.594 139.305C591.98 171.245 631.387 171.834 644.291 143.824C664.333 104.552 683.926 62.1106 687.872 18.3219C685.812 2.34889 667.509 -5.30285 653.842 4.08183C642.193 15.1261 638.748 30.9281 635.318 46.6627Z" fill="#905BE7"/>
<path d="M739.213 165.802C745.205 166.454 750.932 167.078 755.857 168.092C776.224 170.344 801.027 150.845 784.81 132.242C779.594 124.426 767.694 123.983 756.435 123.564C744.282 123.112 732.875 122.687 731.421 113.05C730.158 107.235 734.808 108.435 739.475 109.639C741.754 110.228 744.037 110.817 745.637 110.591C782.863 111.243 776.818 71.9707 733.565 71.5173C730.868 69.4432 732.383 64.8901 733.848 60.4892C734.708 57.9028 735.552 55.3685 735.512 53.4214C740.727 51.7772 748.138 53.0972 755.785 54.4594C771.07 57.1819 787.299 60.0726 788.828 39.8011C791.593 11.2375 697.178 0.0818775 694.543 30.7482C693.874 40.9699 692.92 51.2217 691.965 61.4876L691.965 61.4902L691.965 61.4929V61.4943C689.653 86.3447 687.334 111.277 689.015 136.065C691.205 160.573 717.024 163.385 739.213 165.802Z" fill="#905BE7"/>
<path fill-rule="evenodd" clip-rule="evenodd" d="M445.37 115.442L445.368 115.471C445.079 119.741 444.79 124.01 444.519 128.277C437.973 167.497 492.917 157.785 516.815 151.197C542.604 143.035 557.634 115.515 555.95 89.7799C554.593 43.5925 504.403 11.2837 459.865 17.339C443.557 20.3571 445.309 35.3454 446.89 48.8766C447.388 53.1327 447.868 57.2446 447.764 60.7945C447.833 79.026 446.601 97.2434 445.37 115.442ZM504.276 84.9852C504.537 87.0356 504.787 89.0008 505.088 90.795C505.307 103.83 497.531 111.212 485.474 115.282C481.721 108.187 481.9 96.4505 482.079 84.7833C482.196 77.1413 482.313 69.5292 481.323 63.2707C481.146 58.3964 482.957 57.1273 488.043 57.6205C501.022 59.4259 502.818 73.534 504.276 84.9852Z" fill="#905BE7"/>
<path fill-rule="evenodd" clip-rule="evenodd" d="M808.81 89.2006C808.659 100.556 808.529 110.384 807.589 115.566L807.531 115.986C805.103 133.792 800.413 168.177 827.98 169.212C846.382 170.377 849.05 157.297 851.489 145.34C852.582 139.985 853.628 134.854 856.022 131.33C861.498 136.07 865.777 143.735 870.079 151.439C879.432 168.193 888.888 185.131 910.964 172.568C929.379 159.413 914.996 131.775 902.55 118.916L902.507 118.873C901.413 117.765 900.862 117.208 900.84 116.632C900.818 116.049 901.336 115.447 902.376 114.235L902.495 114.097C920.09 95.5275 928.352 63.8888 909.497 43.2671C888.349 19.7016 850.738 17.1349 821.496 24.2282C809.644 26.3408 809.169 62.1142 808.81 89.2006ZM853.43 76.2878C852.607 64.5087 851.647 50.7725 859.851 53.3457C874.413 51.7641 878.972 78.8935 870.337 87.0965C866.245 90.8667 857.078 96.9108 853.429 90.1106C854.21 87.4493 853.837 82.1074 853.43 76.2878Z" fill="#905BE7"/>
<path fill-rule="evenodd" clip-rule="evenodd" d="M307.228 121.896C312.373 88.0318 318.48 47.8451 341.611 29.9517C356.478 19.1216 380.366 16.686 393.636 31.3652C415.931 66.0266 441.836 111.851 433.609 153.734C416.607 175.482 405.996 160.349 398.286 149.355C394.845 144.449 391.982 140.366 389.387 140.754C384.959 144.462 377.897 144.896 371.096 145.313C360.926 145.938 351.341 146.526 352.023 157.975C350.135 184.33 294.21 179.829 302.127 151.219C304.07 142.68 305.601 132.605 307.228 121.898L307.228 121.896ZM357.992 97.3151C357.208 101.843 356.426 106.365 355.209 110.517C356.356 113.276 361.007 112.135 365.483 111.036C368.152 110.381 370.759 109.741 372.525 109.952C376.929 109.471 371.967 98.599 367.756 89.3724C365.475 84.3767 363.415 79.863 363.181 77.7425C360.4 83.4036 359.195 90.3667 357.992 97.3151Z" fill="#905BE7"/>
<path fill-rule="evenodd" clip-rule="evenodd" d="M1077.5 143.454C1077.89 140.643 1078.27 137.833 1078.64 135.033C1082.32 107.479 1085.89 80.7678 1106.95 60.7534C1132.59 39.5963 1174.18 46.0515 1195.99 69.6276C1232.9 113.35 1177.39 164.489 1128.87 148.165C1111.83 147.778 1130.19 179.321 1153.38 171.13C1181.5 160.911 1191.22 201.454 1163.42 206.855C1121.24 217.352 1069.6 190.581 1077.5 143.454ZM1150.23 84.5677C1137.75 83.3241 1128.23 91.757 1128.58 103.95C1127.1 112.364 1143.74 113.299 1149.67 112.988C1172.42 111.599 1175.03 84.0695 1150.23 84.5677Z" fill="#905BE7"/>
<path d="M995.562 31.2805C1023.33 31.8378 1073.03 45.3091 1055.36 73.3111C1047.8 85.2838 1032.06 81.3103 1018.12 77.7905C1012.04 76.2542 1006.3 74.8044 1001.73 74.8044C983.554 74.8044 989.509 89.4099 1004.27 95.6419C1019.51 102.081 1044.27 116.055 1049.02 128.828C1086.53 229.777 895.651 187.916 944.544 138.037C955.253 128.087 966.244 134.056 977.372 140.099C984.33 143.879 991.342 147.687 998.373 147.65C1014.43 147.567 1007.19 135.066 990.654 131.858C925.83 119.28 925.964 29.8836 995.562 31.2805Z" fill="#905BE7"/>
<path fill-rule="evenodd" clip-rule="evenodd" d="M292.895 115.103C295.266 212.161 160.584 215.169 156.588 118.201C147.652 -1.91293 299.485 -8.47196 292.895 115.103ZM243.605 125.992C246.011 113.249 229.638 55.0202 211.703 85.5209C191.26 126.054 245.139 174.405 243.605 125.992Z" fill="#905BE7"/>
<path d="M104.236 49.7297C162.619 52.0209 166.633 106.949 104.219 108.1C100.679 108.41 104.779 120.254 109.227 133.1C113.336 144.968 117.741 157.692 116.689 162.964C115.19 220.381 61.009 204.617 65.4404 135.184C66.2858 109.344 58.372 111.455 44.7317 115.095C39.3582 116.528 33.096 118.199 26.1305 118.492C1.59249 123.006 -9.78975 91.1548 10.3613 77.8559C25.1448 58.0842 62.1057 54.234 89.9249 51.3361C95.0747 50.7997 99.9113 50.2959 104.236 49.7297Z" fill="#905BE7"/>
</mask>
<g mask="url(#mask0_208_7911)">
<path d="M635.318 46.6627C633.327 55.7946 631.341 64.9038 627.76 73.0471L627.654 72.7281C618.635 45.552 594.506 -27.1537 557.471 12.8809C547.997 23.1228 559.044 56.4796 570.104 89.8768C575.929 107.465 581.757 125.065 584.594 139.305C591.98 171.245 631.387 171.834 644.291 143.824C664.333 104.552 683.926 62.1106 687.872 18.3219C685.812 2.34889 667.509 -5.30285 653.842 4.08183C642.193 15.1261 638.748 30.9281 635.318 46.6627Z" fill="#905BE7"/>
<path d="M739.213 165.802C745.205 166.454 750.932 167.078 755.857 168.092C776.224 170.344 801.027 150.845 784.81 132.242C779.594 124.426 767.694 123.983 756.435 123.564C744.282 123.112 732.875 122.687 731.421 113.05C730.158 107.235 734.808 108.435 739.475 109.639C741.754 110.228 744.037 110.817 745.637 110.591C782.863 111.243 776.818 71.9707 733.565 71.5173C730.868 69.4432 732.383 64.8901 733.848 60.4892C734.708 57.9028 735.552 55.3685 735.512 53.4214C740.727 51.7772 748.138 53.0972 755.785 54.4594C771.07 57.1819 787.299 60.0726 788.828 39.8011C791.593 11.2375 697.178 0.0818775 694.543 30.7482C693.874 40.9699 692.92 51.2217 691.965 61.4876L691.965 61.4902L691.965 61.4929V61.4943C689.653 86.3447 687.334 111.277 689.015 136.065C691.205 160.573 717.024 163.385 739.213 165.802Z" fill="#905BE7"/>
<path fill-rule="evenodd" clip-rule="evenodd" d="M445.37 115.442L445.368 115.471C445.079 119.741 444.79 124.01 444.519 128.277C437.973 167.497 492.917 157.785 516.815 151.197C542.604 143.035 557.634 115.515 555.95 89.7799C554.593 43.5925 504.403 11.2837 459.865 17.339C443.557 20.3571 445.309 35.3454 446.89 48.8766C447.388 53.1327 447.868 57.2446 447.764 60.7945C447.833 79.026 446.601 97.2434 445.37 115.442ZM504.276 84.9852C504.537 87.0356 504.787 89.0008 505.088 90.795C505.307 103.83 497.531 111.212 485.474 115.282C481.721 108.187 481.9 96.4505 482.079 84.7833C482.196 77.1413 482.313 69.5292 481.323 63.2707C481.146 58.3964 482.957 57.1273 488.043 57.6205C501.022 59.4259 502.818 73.534 504.276 84.9852Z" fill="#905BE7"/>
<path fill-rule="evenodd" clip-rule="evenodd" d="M808.81 89.2006C808.659 100.556 808.529 110.384 807.589 115.566L807.531 115.986C805.103 133.792 800.413 168.177 827.98 169.212C846.382 170.377 849.05 157.297 851.489 145.34C852.582 139.985 853.628 134.854 856.022 131.33C861.498 136.07 865.777 143.735 870.079 151.439C879.432 168.193 888.888 185.131 910.964 172.568C929.379 159.413 914.996 131.775 902.55 118.916L902.507 118.873C901.413 117.765 900.862 117.208 900.84 116.632C900.818 116.049 901.336 115.447 902.376 114.235L902.495 114.097C920.09 95.5275 928.352 63.8888 909.497 43.2671C888.349 19.7016 850.738 17.1349 821.496 24.2282C809.644 26.3408 809.169 62.1142 808.81 89.2006ZM853.43 76.2878C852.607 64.5087 851.647 50.7725 859.851 53.3457C874.413 51.7641 878.972 78.8935 870.337 87.0965C866.245 90.8667 857.078 96.9108 853.429 90.1106C854.21 87.4493 853.837 82.1074 853.43 76.2878Z" fill="#905BE7"/>
<path fill-rule="evenodd" clip-rule="evenodd" d="M307.228 121.896C312.373 88.0318 318.48 47.8451 341.611 29.9517C356.478 19.1216 380.366 16.686 393.636 31.3652C415.931 66.0266 441.836 111.851 433.609 153.734C416.607 175.482 405.996 160.349 398.286 149.355C394.845 144.449 391.982 140.366 389.387 140.754C384.959 144.462 377.897 144.896 371.096 145.313C360.926 145.938 351.341 146.526 352.023 157.975C350.135 184.33 294.21 179.829 302.127 151.219C304.07 142.68 305.601 132.605 307.228 121.898L307.228 121.896ZM357.992 97.3151C357.208 101.843 356.426 106.365 355.209 110.517C356.356 113.276 361.007 112.135 365.483 111.036C368.152 110.381 370.759 109.741 372.525 109.952C376.929 109.471 371.967 98.599 367.756 89.3724C365.475 84.3767 363.415 79.863 363.181 77.7425C360.4 83.4036 359.195 90.3667 357.992 97.3151Z" fill="#905BE7"/>
<path fill-rule="evenodd" clip-rule="evenodd" d="M1077.5 143.454C1077.89 140.643 1078.27 137.833 1078.64 135.033C1082.32 107.479 1085.89 80.7678 1106.95 60.7534C1132.59 39.5963 1174.18 46.0515 1195.99 69.6276C1232.9 113.35 1177.39 164.489 1128.87 148.165C1111.83 147.778 1130.19 179.321 1153.38 171.13C1181.5 160.911 1191.22 201.454 1163.42 206.855C1121.24 217.352 1069.6 190.581 1077.5 143.454ZM1150.23 84.5677C1137.75 83.3241 1128.23 91.757 1128.58 103.95C1127.1 112.364 1143.74 113.299 1149.67 112.988C1172.42 111.599 1175.03 84.0695 1150.23 84.5677Z" fill="#905BE7"/>
<path d="M995.562 31.2805C1023.33 31.8378 1073.03 45.3091 1055.36 73.3111C1047.8 85.2838 1032.06 81.3103 1018.12 77.7905C1012.04 76.2542 1006.3 74.8044 1001.73 74.8044C983.554 74.8044 989.509 89.4099 1004.27 95.6419C1019.51 102.081 1044.27 116.055 1049.02 128.828C1086.53 229.777 895.651 187.916 944.544 138.037C955.253 128.087 966.244 134.056 977.372 140.099C984.33 143.879 991.342 147.687 998.373 147.65C1014.43 147.567 1007.19 135.066 990.654 131.858C925.83 119.28 925.964 29.8836 995.562 31.2805Z" fill="#905BE7"/>
<path fill-rule="evenodd" clip-rule="evenodd" d="M292.895 115.103C295.266 212.161 160.584 215.169 156.588 118.201C147.652 -1.91293 299.485 -8.47196 292.895 115.103ZM243.605 125.992C246.011 113.249 229.638 55.0202 211.703 85.5209C191.26 126.054 245.139 174.405 243.605 125.992Z" fill="#905BE7"/>
<path d="M104.236 49.7297C162.619 52.0209 166.633 106.949 104.219 108.1C100.679 108.41 104.779 120.254 109.227 133.1C113.336 144.968 117.741 157.692 116.689 162.964C115.19 220.381 61.009 204.617 65.4404 135.184C66.2858 109.344 58.372 111.455 44.7317 115.095C39.3582 116.528 33.096 118.199 26.1305 118.492C1.59249 123.006 -9.78975 91.1548 10.3613 77.8559C25.1448 58.0842 62.1057 54.234 89.9249 51.3361C95.0747 50.7997 99.9113 50.2959 104.236 49.7297Z" fill="#905BE7"/>
<path d="M500 144.896C500 152.71 493.508 159.044 485.5 159.044C477.492 159.044 471 152.71 471 144.896C471 137.082 477.492 130.748 485.5 130.748C493.508 130.748 500 137.082 500 144.896Z" fill="white" fill-opacity="0.17"/>
<path d="M633 52.2015C633 60.0153 626.508 66.3496 618.5 66.3496C610.492 66.3496 604 60.0153 604 52.2015C604 44.3877 610.492 38.0533 618.5 38.0533C626.508 38.0533 633 44.3877 633 52.2015Z" fill="white" fill-opacity="0.17"/>
<path d="M422 56.1044C422 66.6126 412.822 75.1312 401.5 75.1312C390.178 75.1312 381 66.6126 381 56.1044C381 45.5962 390.178 37.0776 401.5 37.0776C412.822 37.0776 422 45.5962 422 56.1044Z" fill="white" fill-opacity="0.17"/>
<path d="M349 121.479C349 129.831 342.732 136.602 335 136.602C327.268 136.602 321 129.831 321 121.479C321 113.126 327.268 106.355 335 106.355C342.732 106.355 349 113.126 349 121.479Z" fill="white" fill-opacity="0.17"/>
<path d="M706 106.843C706 115.195 699.732 121.966 692 121.966C684.268 121.966 678 115.195 678 106.843C678 98.4899 684.268 91.7187 692 91.7187C699.732 91.7187 706 98.4899 706 106.843Z" fill="white" fill-opacity="0.17"/>
<path d="M774 81.4735C774 89.8261 767.732 96.5973 760 96.5973C752.268 96.5973 746 89.8261 746 81.4735C746 73.1208 752.268 66.3496 760 66.3496C767.732 66.3496 774 73.1208 774 81.4735Z" fill="white" fill-opacity="0.17"/>
<path d="M752.991 21.1018C749.06 28.5217 740.305 31.7282 733.436 28.2638C726.568 24.7993 724.187 15.9758 728.118 8.55589C732.049 1.13597 740.803 -2.07056 747.672 1.3939C754.54 4.85836 756.922 13.6819 752.991 21.1018Z" fill="white" fill-opacity="0.17"/>
<path d="M848.468 128.571C845.353 134.451 837.26 136.409 830.391 132.944C823.523 129.48 820.48 121.905 823.595 116.025C826.71 110.145 834.803 108.187 841.672 111.652C848.54 115.116 851.583 122.691 848.468 128.571Z" fill="white" fill-opacity="0.17"/>
<path d="M917.47 100.357C914.379 106.191 905.366 107.639 897.339 103.59C889.313 99.5418 885.312 91.53 888.403 85.6955C891.494 79.8609 900.507 78.4131 908.533 82.4617C916.56 86.5102 920.561 94.522 917.47 100.357Z" fill="white" fill-opacity="0.17"/>
<path d="M995.664 130.604C992.573 136.439 983.56 137.887 975.534 133.838C967.507 129.79 963.506 121.778 966.597 115.943C969.689 110.109 978.701 108.661 986.728 112.709C994.754 116.758 998.755 124.77 995.664 130.604Z" fill="white" fill-opacity="0.17"/>
<path d="M1044.15 189.016C1039.67 197.472 1029.53 201.044 1021.5 196.996C1013.48 192.947 1010.6 182.81 1015.08 174.355C1019.56 165.899 1029.7 162.326 1037.73 166.375C1045.75 170.423 1048.63 180.56 1044.15 189.016Z" fill="white" fill-opacity="0.17"/>
<path d="M1122.83 130.278C1119.84 135.926 1113.07 138.312 1107.71 135.608C1102.35 132.904 1100.43 126.133 1103.42 120.484C1106.41 114.836 1113.18 112.45 1118.54 115.154C1123.91 117.858 1125.83 124.629 1122.83 130.278Z" fill="white" fill-opacity="0.17"/>
<path d="M1221.19 99.4328C1221 109.453 1213.88 117.452 1205.29 117.299C1196.7 117.147 1189.89 108.9 1190.08 98.8801C1190.26 88.8601 1197.38 80.861 1205.97 81.0136C1214.56 81.1663 1221.37 89.4128 1221.19 99.4328Z" fill="white" fill-opacity="0.17"/>
<path d="M1148.12 220.368C1138.24 223.092 1128.33 218.759 1126 210.692C1123.66 202.624 1129.78 193.875 1139.66 191.152C1149.55 188.428 1159.45 192.76 1161.79 200.828C1164.12 208.896 1158.01 217.644 1148.12 220.368Z" fill="white" fill-opacity="0.17"/>
<path d="M1127.98 49.3431C1130.25 56.4403 1127.15 63.693 1121.07 65.5422C1114.98 67.3915 1108.21 63.1371 1105.95 56.0398C1103.68 48.9426 1106.78 41.6899 1112.86 39.8407C1118.95 37.9914 1125.71 42.2458 1127.98 49.3431Z" fill="white" fill-opacity="0.17"/>
<path d="M65 66.8375C65 77.3457 57.165 85.8643 47.5 85.8643C37.835 85.8643 30 77.3457 30 66.8375C30 56.3292 37.835 47.8107 47.5 47.8107C57.165 47.8107 65 56.3292 65 66.8375Z" fill="white" fill-opacity="0.17"/>
<path d="M553 56.1044C553 66.6126 545.165 75.1312 535.5 75.1312C525.835 75.1312 518 66.6126 518 56.1044C518 45.5962 525.835 37.0776 535.5 37.0776C545.165 37.0776 553 45.5962 553 56.1044Z" fill="white" fill-opacity="0.17"/>
<path d="M599.297 126.635C594.583 137.113 585.747 143.458 579.56 140.808C573.373 138.158 572.178 127.516 576.892 117.038C581.606 106.561 590.442 100.216 596.63 102.866C602.817 105.516 604.011 116.158 599.297 126.635Z" fill="white" fill-opacity="0.17"/>
<path d="M117.226 161.056C111.379 167.157 102.061 167.926 96.4135 162.773C90.7659 157.62 90.9274 148.497 96.7741 142.396C102.621 136.295 111.939 135.527 117.586 140.679C123.234 145.832 123.073 154.955 117.226 161.056Z" fill="white" fill-opacity="0.17"/>
<path d="M237 75.6191C237 83.9717 230.732 90.7429 223 90.7429C215.268 90.7429 209 83.9717 209 75.6191C209 67.2664 215.268 60.4952 223 60.4952C230.732 60.4952 237 67.2664 237 75.6191Z" fill="white" fill-opacity="0.17"/>
<path d="M200 151.726C200 155.768 197.761 159.044 195 159.044C192.239 159.044 190 155.768 190 151.726C190 147.685 192.239 144.408 195 144.408C197.761 144.408 200 147.685 200 151.726Z" fill="white" fill-opacity="0.17"/>
</g>
</svg>
